# xmcd CD database file
# Copyright (C) 1997 Ti Kan
# 
# Track frame offsets:
#     150
#     16975
#     36492
#     54792
#     74605
#     90210
#     100480
#     121090
#     138720
#     147855
#     159148
#     176975
#     190003
#     218050
#     229380
#     233603
#     251560
#     270096
#     289336
# 
# Disc length: 4004 seconds
# 
# Revision: 1
# Processed by: cddbd v1.4b41PL1 Copyright (c) Steve Scherf et al.
# Submitted via: DiscPlay 4.0.4
# 
DISCID=090fa213
DTITLE=Jiskefet - Bull (inclusief Lullo single)
DYEAR=1900
DGENRE=
TTITLE0=Denise
TTITLE1=Hemel
TTITLE2=Technofax
TTITLE3=It Must Be Her
TTITLE4=Haar In Mijn Glas
TTITLE5=Tony Van Heemschut's Kaaspourri
TTITLE6=Conchita
TTITLE7=Toch Mijn Vrouw
TTITLE8=Laat Zien (Je Rode Rokje)
TTITLE9=Man Die Bakt
TTITLE10=All Summer Long
TTITLE11=Tampert
TTITLE12=Mijn Club
TTITLE13=Peter
TTITLE14=Oboema Leert Hond: ZIT
TTITLE15=Lullo, Heb Je Nog Geneukt
TTITLE16=Haar In Mijn Glas
TTITLE17=Gesmoorde Kreet
TTITLE18=Peter
EXTD=
EXTT0=
EXTT1=
EXTT2=
EXTT3=
EXTT4=
EXTT5=
EXTT6=
EXTT7=
EXTT8=
EXTT9=
EXTT10=
EXTT11=
EXTT12=
EXTT13=
EXTT14=
EXTT15=
EXTT16=
EXTT17=
EXTT18=
PLAYORDER=
